PathFileType	4	(X/Y/Z)	C:/Users/beibeiliu/ov580/test_trc/User3\sequence.13_training_dense_left.trc
DataRate	CameraRate	NumFrames	NumMarkers	Units	OrigDataRate	OrigDataStartFrame	OrigNumFrames
120	120	11	19	mm	120	28	109
Frame#	Time	ThumbCMC			ThumbMCP			ThumbIP			ThumbTip			IndexMCP			IndexPIP			IndexTip			MiddleMCP			MiddlePIP			MiddleTip			RingMCP			RingPIP			RingTip			PinkyMCP			PinkyPIP			PinkyTip			BackHand1			BackHand2			BackHand3	
		X0	Y0	Z0	X1	Y1	Z1	X2	Y2	Z2	X3	Y3	Z3	X4	Y4	Z4	X5	Y5	Z5	X6	Y6	Z6	X7	Y7	Z7	X8	Y8	Z8	X9	Y9	Z9	X10	Y10	Z10	X11	Y11	Z11	X12	Y12	Z12	X13	Y13	Z13	X14	Y14	Z14	X15	Y15	Z15	X16	Y16	Z16	X17	Y17	Z17	X18	Y18	Z18	
27	0.225	-193.002	-41.8604	20.3946	-172.224	-50.6524	-11.0496	-170.066	-69.7032	-40.7379	-169.985	-90.3447	-54.5167	-234.549	-45.9886	-41.2407	-230.573	-43.5466	-72.9899	-224.067	-51.9473	-94.8615	-240.346	-66.4318	-48.2211	-231.695	-74.5341	-75.5728	-205.486	-80.1967	-101.101	-233.927	-91.1576	-36.5938	-211.189	-99.3504	-59.3956	-184.128	-104.469	-61.109	-239.98	-108.304	-16.2989	-239.788	-111.227	-36.9018	-237.578	-120.244	-61.2233	-241.427	-77.4293	19.7926	-234.732	-79.2886	50.5057	-232.805	-48.6974	25.4403	
28	0.233333	-190.62	-38.6692	17.4474	-174.149	-51.9664	-8.76375	-169.488	-68.8335	-36.724	-170.381	-87.9676	-50.9274	-233.979	-42.1475	-44.1944	-230.957	-43.2573	-70.6303	-222.422	-49.4029	-99.7671	-239.886	-62.5567	-44.5354	-230.672	-69.2406	-77.3457	-211.032	-79.7486	-97.4749	-232.522	-87.2822	-39.5636	-211.991	-94.916	-61.0368	-184.227	-101.081	-61.4485	-240.417	-101.902	-17.9104	-241.737	-111.364	-41.6064	-240.127	-118.449	-63.9757	-245.52	-78.5919	17.0872	-235.639	-74.8486	50.8571	-232.603	-45.5779	28.2371	
29	0.241667	-187.056	-38.4902	20.1286	-173.213	-52.0953	-11.3899	-163.444	-64.8521	-39.2084	-166.175	-86.4119	-54.8005	-230.608	-38.9098	-43.6732	-226.148	-36.5141	-72.9125	-215.946	-39.9983	-100.346	-240.119	-61.5932	-48.939	-229.578	-65.5949	-77.9906	-206.085	-75.4645	-103.779	-231.79	-82.3861	-40.7632	-212.071	-92.6838	-61.2931	-183.802	-103.119	-60.667	-239.496	-96.2714	-21.403	-242.916	-105.212	-45.5578	-239.66	-111.278	-67.7797	-241.568	-69.8533	17.8956	-234.635	-71.1571	45.1818	-229.275	-40.8098	26.4571	
30	0.25	-187.493	-37.3045	15.5382	-167.566	-46.6786	-15.7847	-163.356	-63.9312	-37.0629	-166.476	-84.155	-55.4972	-223.973	-29.0182	-51.1184	-220.988	-32.5705	-74.2946	-210.664	-37.9158	-103.903	-235.387	-55.3517	-49.7938	-225.904	-60.501	-81.486	-205.016	-70.84	-103.774	-229.974	-77.1969	-46.1845	-208.763	-90.689	-64.6056	-178.39	-94.4655	-62.4266	-239.241	-92.5733	-26.9008	-240.699	-99.997	-46.8728	-238.548	-106.577	-74.3732	-244.187	-68.4893	11.6981	-235.096	-68.39	42.8255	-228.156	-37.8732	22.3464	
31	0.258333	-184.452	-30.6887	15.8213	-162.46	-40.7696	-16.1948	-159.662	-57.357	-38.5096	-158.562	-76.7891	-58.1295	-221.477	-27.4321	-53.8751	-214.319	-24.9437	-78.1777	-203.746	-29.5661	-104.346	-230.555	-48.3933	-57.577	-219.129	-53.411	-85.1574	-196.758	-62.1005	-109.443	-226.481	-74.4835	-46.3063	-207.791	-81.9596	-66.7157	-175.133	-90.1256	-64.9044	-234.967	-90.4559	-26.8668	-237.33	-97.9704	-52.1942	-233.927	-102.507	-72.1841	-240.628	-63.029	9.10699	-231.859	-62.3593	39.8359	-223.605	-30.1159	17.5445	
32	0.266667	-188.128	-27.4262	12.8738	-166.265	-35.6402	-15.4246	-156.182	-51.6198	-41.1239	-158.201	-73.3415	-55.4515	-223.407	-28.0715	-51.2117	-217.293	-30.0293	-81.1846	-206.605	-34.6446	-105.75	-230.698	-54.8834	-55.5328	-220.561	-57.9226	-85.3569	-194.691	-63.3205	-108.295	-224.04	-74.7299	-47.9653	-204.791	-84.5665	-68.2212	-172.649	-87.7123	-65.8705	-229.842	-95.3342	-29.1081	-229.89	-98.1045	-52.834	-224.688	-105.965	-76.6757	-239.54	-68.2065	6.65052	-231.315	-64.6375	38.1506	-227.724	-38.1335	17.2769	
33	0.275	-196.652	-24.6253	12.2358	-172.855	-32.7873	-17.8546	-160.851	-50.8881	-43.9877	-157.308	-70.132	-53.114	-230.726	-42.4099	-53.3491	-225.074	-42.2462	-82.006	-211.86	-43.458	-106.417	-232.365	-64.1153	-58.4358	-221.451	-67.8703	-84.8465	-196.6	-69.641	-106.311	-221.484	-83.4721	-49.195	-200.956	-89.5396	-66.7898	-167.275	-86.5334	-63.287	-226.049	-104.249	-30.8217	-223.01	-107.53	-51.873	-219.015	-117.564	-72.325	-239.583	-74.5296	6.28921	-235.033	-72.4465	34.4382	-236.751	-44.6929	15.0885	
34	0.283333	-203.286	-29.6573	13.0535	-176.428	-33.5176	-15.6703	-164.344	-50.0182	-38.5316	-159.97	-73.1534	-50.8987	-235.39	-47.2217	-52.0239	-228.033	-49.1198	-84.5061	-218.684	-50.4902	-103.894	-235.67	-71.6483	-58.473	-221.934	-76.1045	-85.8145	-194.095	-76.0887	-107.373	-222.822	-92.7113	-45.9311	-198.701	-92.2386	-67.4293	-166.644	-87.5466	-60.8339	-222.664	-109.128	-23.6561	-221.714	-115.582	-50.5266	-215.646	-121.024	-72.1593	-240.664	-81.4201	7.83154	-235.782	-78.3736	39.7891	-240.375	-52.2791	15.6772	
35	0.291667	-203.561	-29.8333	14.4936	-179.905	-37.3125	-17.5659	-167.349	-52.6848	-37.438	-160.768	-75.4877	-49.1318	-238.258	-48.8409	-53.1291	-230.668	-47.1353	-84.652	-220.592	-50.7665	-103.741	-237.065	-78.3653	-57.512	-223.926	-76.8649	-85.3364	-198.312	-76.7974	-107.346	-223.182	-96.1492	-45.3026	-198.144	-96.1451	-66.3484	-170.087	-88.6632	-60.0418	-225.376	-112.88	-27.592	-221.739	-119.316	-50.206	-214.193	-127.135	-67.8789	-242.299	-87.2065	7.31196	-238.054	-82.7001	39.012	-239.713	-53.7148	17.5581	
36	0.3	-204.634	-29.5465	13.3163	-181.35	-37.5003	-17.1448	-167.482	-51.5337	-37.811	-157.292	-72.8868	-54.1434	-237.397	-53.6119	-53.7362	-233.021	-52.1555	-79.9567	-221.166	-54.4705	-104.384	-237.972	-76.4944	-55.1955	-227.696	-75.7757	-83.588	-201.987	-80.9761	-106.252	-223.655	-95.7671	-43.5932	-202.113	-96.9229	-64.8977	-167.601	-85.9136	-57.9743	-223.932	-111.075	-28.4792	-220.779	-117.765	-49.2382	-212.24	-128.406	-70.8501	-239.64	-89.0723	10.587	-237.969	-82.6591	37.5415	-240.066	-54.6012	16.7661	
37	0.308333	-204.792	-30.9342	10.9026	-181.459	-36.5347	-19.4841	-166.911	-49.6375	-38.6629	-157.307	-70.4855	-54.8357	-237.03	-52.8131	-58.3456	-231.798	-50.6607	-84.2112	-220.081	-49.8008	-107.329	-237.138	-77.4244	-54.0243	-227.31	-78.103	-84.5502	-203.422	-81.2118	-107.402	-223.28	-96.4138	-44.5195	-198.514	-94.1158	-67.5522	-165.896	-88.6263	-57.1019	-222.635	-111.721	-23.2601	-219.463	-120.492	-47.2638	-214.524	-124.112	-68.5118	-239.167	-82.9995	10.6423	-236.521	-84.3805	38.805	-241.091	-50.202	13.6556	
